<svg width="33" height="28" viewBox="0 0 33 28" fill="none" xmlns="http://www.w3.org/2000/svg">
<g id="vuesax/linear/message">
<g id="message">
<path id="Vector" d="M11.4986 22.1598H10.8222C5.41112 22.1598 2.70557 20.9935 2.70557 15.1619V9.33037C2.70557 4.66514 5.41112 2.33252 10.8222 2.33252H21.6445C27.0556 2.33252 29.7611 4.66514 29.7611 9.33037V15.1619C29.7611 19.8272 27.0556 22.1598 21.6445 22.1598H20.9681C20.5487 22.1598 20.1429 22.3347 19.8858 22.6263L17.8567 24.9589C16.9638 25.9853 15.5028 25.9853 14.61 24.9589L12.5808 22.6263C12.3644 22.3697 11.8639 22.1598 11.4986 22.1598Z" stroke="#787486" stroke-width="1.5" stroke-miterlimit="10" stroke-linecap="round" stroke-linejoin="round"/>
<path id="Vector_2" d="M21.6397 12.8295H21.6518" stroke="#787486" stroke-width="2" stroke-linecap="round" stroke-linejoin="round"/>
<path id="Vector_3" d="M16.2272 12.8295H16.2393" stroke="#787486" stroke-width="2" stroke-linecap="round" stroke-linejoin="round"/>
<path id="Vector_4" d="M10.8148 12.8295H10.827" stroke="#787486" stroke-width="2" stroke-linecap="round" stroke-linejoin="round"/>
</g>
</g>
</svg>
