<svg width="33" height="28" viewBox="0 0 33 28" fill="none" xmlns="http://www.w3.org/2000/svg">
<g id="vuesax/bulk/colorfilter">
<g id="colorfilter">
<path id="Vector" opacity="0.6" d="M18.9389 18.6609C18.9389 20.7253 17.8973 22.5913 16.2333 23.8626C14.7994 24.9823 12.9055 25.6587 10.8222 25.6587C6.34454 25.6587 2.70557 22.5214 2.70557 18.6609C2.70557 15.4419 5.24879 12.7127 8.68484 11.908C9.61826 13.9373 11.6204 15.5002 14.096 16.0833C14.7723 16.2466 15.4893 16.3283 16.2333 16.3283C16.9774 16.3283 17.6943 16.2466 18.3707 16.0833C18.736 16.8764 18.9389 17.7512 18.9389 18.6609Z" fill="#5030E5"/>
<path id="Vector_2" d="M24.35 9.33037C24.35 10.2401 24.1471 11.1148 23.7819 11.9079C22.8484 13.9373 20.8463 15.5001 18.3708 16.0833C17.6944 16.2466 16.9774 16.3282 16.2334 16.3282C15.4893 16.3282 14.7724 16.2466 14.096 16.0833C11.6204 15.5001 9.61828 13.9373 8.68487 11.9079C8.31962 11.1148 8.1167 10.2401 8.1167 9.33037C8.1167 5.46989 11.7557 2.33252 16.2334 2.33252C20.7111 2.33252 24.35 5.46989 24.35 9.33037Z" fill="#5030E5"/>
<path id="Vector_3" opacity="0.4" d="M29.7611 18.6609C29.7611 22.5214 26.1221 25.6587 21.6444 25.6587C19.5611 25.6587 17.6672 24.9823 16.2333 23.8626C17.8972 22.5913 18.9388 20.7253 18.9388 18.6609C18.9388 17.7512 18.7359 16.8764 18.3707 16.0833C20.8462 15.5002 22.8484 13.9373 23.7818 11.908C27.2178 12.7127 29.7611 15.4419 29.7611 18.6609Z" fill="#5030E5"/>
</g>
</g>
</svg>
