<svg width="33" height="28" viewBox="0 0 33 28" fill="none" xmlns="http://www.w3.org/2000/svg">
<g id="vuesax/linear/profile-2user">
<g id="profile-2user">
<path id="Vector" d="M12.3914 12.6778C12.2562 12.6661 12.0938 12.6661 11.945 12.6778C8.72542 12.5845 6.16867 10.3102 6.16867 7.51105C6.16867 4.6536 8.84717 2.33264 12.175 2.33264C15.4893 2.33264 18.1813 4.6536 18.1813 7.51105C18.1678 10.3102 15.6111 12.5845 12.3914 12.6778Z" stroke="#787486" stroke-width="1.5" stroke-linecap="round" stroke-linejoin="round"/>
<path id="Vector_2" d="M22.1991 4.66528C24.8235 4.66528 26.9338 6.49639 26.9338 8.74736C26.9338 10.9517 24.9046 12.7478 22.3749 12.8294C22.2667 12.8178 22.145 12.8178 22.0232 12.8294" stroke="#787486" stroke-width="1.5" stroke-linecap="round" stroke-linejoin="round"/>
<path id="Vector_3" d="M5.62756 16.9815C2.35383 18.8709 2.35383 21.95 5.62756 23.8277C9.34769 25.9737 15.4487 25.9737 19.1689 23.8277C22.4426 21.9383 22.4426 18.8593 19.1689 16.9815C15.4623 14.8472 9.36122 14.8472 5.62756 16.9815Z" stroke="#787486" stroke-width="1.5" stroke-linecap="round" stroke-linejoin="round"/>
<path id="Vector_4" d="M24.8099 23.3262C25.7839 23.1513 26.7038 22.813 27.4614 22.3115C29.5717 20.947 29.5717 18.696 27.4614 17.3314C26.7174 16.8415 25.811 16.515 24.8505 16.3284" stroke="#787486" stroke-width="1.5" stroke-linecap="round" stroke-linejoin="round"/>
</g>
</g>
</svg>
