<svg width="33" height="28" viewBox="0 0 33 28" fill="none" xmlns="http://www.w3.org/2000/svg">
<g id="vuesax/outline/category">
<g id="category">
<path id="Vector" d="M9.46939 12.5379H6.76383C3.49011 12.5379 1.69092 10.9868 1.69092 8.16428V5.83167C1.69092 3.0092 3.49011 1.45801 6.76383 1.45801H9.46939C12.7431 1.45801 14.5423 3.0092 14.5423 5.83167V8.16428C14.5423 10.9868 12.7431 12.5379 9.46939 12.5379ZM6.76383 3.20747C4.62645 3.20747 3.72008 3.9889 3.72008 5.83167V8.16428C3.72008 10.0071 4.62645 10.7885 6.76383 10.7885H9.46939C11.6068 10.7885 12.5131 10.0071 12.5131 8.16428V5.83167C12.5131 3.9889 11.6068 3.20747 9.46939 3.20747H6.76383Z" fill="#787486"/>
<path id="Vector_2" d="M25.7028 12.5379H22.9972C19.7235 12.5379 17.9243 10.9868 17.9243 8.16428V5.83167C17.9243 3.0092 19.7235 1.45801 22.9972 1.45801H25.7028C28.9765 1.45801 30.7757 3.0092 30.7757 5.83167V8.16428C30.7757 10.9868 28.9765 12.5379 25.7028 12.5379ZM22.9972 3.20747C20.8598 3.20747 19.9535 3.9889 19.9535 5.83167V8.16428C19.9535 10.0071 20.8598 10.7885 22.9972 10.7885H25.7028C27.8402 10.7885 28.7465 10.0071 28.7465 8.16428V5.83167C28.7465 3.9889 27.8402 3.20747 25.7028 3.20747H22.9972Z" fill="#787486"/>
<path id="Vector_3" d="M25.7028 26.5335H22.9972C19.7235 26.5335 17.9243 24.9824 17.9243 22.1599V19.8273C17.9243 17.0048 19.7235 15.4536 22.9972 15.4536H25.7028C28.9765 15.4536 30.7757 17.0048 30.7757 19.8273V22.1599C30.7757 24.9824 28.9765 26.5335 25.7028 26.5335ZM22.9972 17.2031C20.8598 17.2031 19.9535 17.9845 19.9535 19.8273V22.1599C19.9535 24.0027 20.8598 24.7841 22.9972 24.7841H25.7028C27.8402 24.7841 28.7465 24.0027 28.7465 22.1599V19.8273C28.7465 17.9845 27.8402 17.2031 25.7028 17.2031H22.9972Z" fill="#787486"/>
<path id="Vector_4" d="M9.46939 26.5335H6.76383C3.49011 26.5335 1.69092 24.9824 1.69092 22.1599V19.8273C1.69092 17.0048 3.49011 15.4536 6.76383 15.4536H9.46939C12.7431 15.4536 14.5423 17.0048 14.5423 19.8273V22.1599C14.5423 24.9824 12.7431 26.5335 9.46939 26.5335ZM6.76383 17.2031C4.62645 17.2031 3.72008 17.9845 3.72008 19.8273V22.1599C3.72008 24.0027 4.62645 24.7841 6.76383 24.7841H9.46939C11.6068 24.7841 12.5131 24.0027 12.5131 22.1599V19.8273C12.5131 17.9845 11.6068 17.2031 9.46939 17.2031H6.76383Z" fill="#787486"/>
</g>
</g>
</svg>
